<?xml version="1.0" encoding="UTF-8"?>
<svg id="Layer_1" xmlns="http://www.w3.org/2000/svg" version="1.1" viewBox="0 0 108 26">
  <!-- Generator: Adobe Illustrator 29.1.0, SVG Export Plug-In . SVG Version: 2.1.0 Build 142)  -->
  <defs>
    <style>
      .st0 {
        fill: #52f7ff;
      }

      .st1 {
        fill: #fff;
      }

      .st2 {
        isolation: isolate;
      }
    </style>
  </defs>
  <g class="st2">
    <g class="st2">
      <g class="st2">
        <path class="st0" d="M41.7,19.2h1.5s0,0,0,.1c0,0,0,.1,0,.2-.2.8-.5,1.4-.9,1.8-.4.4-1,.6-1.7.6s-.8,0-1.1-.2c-.3-.1-.5-.4-.6-.6,0-.2-.1-.5-.1-.9,0-.4.1-.9.3-1.7.2-.8.3-1.4.4-1.7.1-.4.3-.7.5-.9.2-.3.5-.5.9-.6.3-.1.7-.2,1.1-.2.7,0,1.2.2,1.5.6.3.4.3,1,.2,1.8h0c0,0-1.5,0-1.5,0,0-.4,0-.8,0-.9,0-.2-.2-.3-.4-.3s-.4.1-.6.3c-.1.2-.3.8-.5,1.8h0c-.2,1.1-.3,1.8-.2,2,0,.2.2.3.4.3s.4,0,.5-.3c.1-.2.2-.5.3-.9v-.3Z"/>
        <path class="st0" d="M43.2,21.8l2.7-6.6h1.8v6.6c.1,0-1.4,0-1.4,0v-1.3c0,0-1.2,0-1.2,0l-.4,1.3h-1.6ZM45.6,19.3h.9v-2.9c.1,0-.9,2.9-.9,2.9Z"/>
        <path class="st0" d="M48.5,21.8l1.3-6.6h1.7c.6,0,1,0,1.2,0,.2,0,.4.1.6.3.2.2.3.3.3.6s0,.5,0,.8c0,.4-.2.7-.4,1-.2.3-.4.5-.7.6.4.2.6.7.5,1.5,0,0,0,0,0,0,0,0,0,.2,0,.4-.1.7-.1,1.2,0,1.4h-1.8c0-.1,0-.3,0-.4,0-.2,0-.3,0-.5,0-.1,0-.2,0-.4s0-.2,0-.3c0-.4,0-.7,0-.8,0-.1-.3-.2-.5-.2h-.3l-.5,2.6h-1.5ZM50.8,17.9s0,0,.1,0c0,0,0,0,0,0,.3,0,.6,0,.7-.2.2-.1.3-.3.3-.7,0-.3,0-.5,0-.6-.1-.1-.3-.2-.6-.2s0,0,0,0c0,0,0,0-.1,0l-.3,1.6Z"/>
      </g>
    </g>
  </g>
  <g class="st2">
    <g class="st2">
      <g class="st2">
        <path class="st1" d="M80.6,21.8l-.2-6.6h1.6v3.5c-.1.2-.1.4-.1.6s0,.5,0,.8h0c.2-.8.4-1.2.4-1.4l1.3-3.5h1.6l-2.8,6.6h-1.8Z"/>
        <path class="st1" d="M84.6,21.8l1.3-6.6h1.6l.5,4.1c0-.7.2-1.3.2-1.8,0-.5.1-.9.2-1.3l.2-1h1.4l-1.3,6.6h-1.6l-.5-4.2c0,.5-.1,1.1-.2,1.6,0,.5-.2,1-.2,1.5l-.2,1.1h-1.4Z"/>
      </g>
    </g>
  </g>
  <g class="st2">
    <g class="st2">
      <g class="st2">
        <path class="st0" d="M55.6,21.8l1-5.3h-1.2l.3-1.3h4.1l-.3,1.3h-1.3l-1,5.3h-1.6Z"/>
        <path class="st0" d="M59.1,21.8l1.3-6.6h1.7c.6,0,1,0,1.2,0,.2,0,.4.1.6.3.2.2.3.3.3.6s0,.5,0,.8c0,.4-.2.7-.4,1-.2.3-.4.5-.7.6.4.2.6.7.5,1.5,0,0,0,0,0,0,0,0,0,.2,0,.4-.1.7-.1,1.2,0,1.4h-1.8c0-.1,0-.3,0-.4,0-.2,0-.3,0-.5,0-.1,0-.2,0-.4s0-.2,0-.3c0-.4,0-.7,0-.8,0-.1-.3-.2-.5-.2h-.3l-.5,2.6h-1.5ZM61.4,17.9s0,0,.1,0c0,0,0,0,0,0,.3,0,.6,0,.7-.2.2-.1.3-.3.3-.7,0-.3,0-.5,0-.6-.1-.1-.3-.2-.6-.2s0,0,0,0c0,0,0,0-.1,0l-.3,1.6Z"/>
        <path class="st0" d="M63.8,21.8l2.7-6.6h1.8v6.6c.1,0-1.4,0-1.4,0v-1.3c0,0-1.2,0-1.2,0l-.4,1.3h-1.6ZM66.2,19.3h.9v-2.9c.1,0-.9,2.9-.9,2.9Z"/>
        <path class="st0" d="M69.1,21.8l1.3-6.6h1.7c.6,0,1.1,0,1.4.2.3.1.5.3.6.6,0,.2.1.5.1.8,0,.3,0,.9-.3,1.8-.2.9-.3,1.5-.4,1.8s-.3.6-.4.8c-.2.3-.5.4-.8.6-.3.1-.8.2-1.4.2h-1.7ZM71.7,16.4l-.8,4.2s0,0,0,0h.1c.2,0,.3,0,.4,0,.1,0,.2-.1.3-.2,0,0,.1-.2.2-.5s.2-.7.3-1.3v-.3c.2-.5.2-.9.2-1.1,0-.2,0-.3,0-.4,0,0-.1-.2-.2-.2s-.2,0-.4,0,0,0-.1,0c0,0,0,0,0,0Z"/>
        <path class="st0" d="M74.3,21.8l1.3-6.6h3.6l-.3,1.3h-2.1l-.2,1.2h1.9l-.3,1.3h-1.9l-.3,1.4h2.1l-.3,1.3h-3.6Z"/>
      </g>
    </g>
  </g>
  <g class="st2">
    <g class="st2">
      <g class="st2">
        <path class="st1" d="M38.7,25.3h-.3l.4-1.8h1.3v.2h-1.1l-.3,1.6ZM38.9,24.3h.9v.2h-1v-.2Z"/>
        <path class="st1" d="M40.6,25.3l.3-1.4h.2l-.3,1.4h-.2ZM41,23.7s0,0-.1,0c0,0,0,0,0-.1s0,0,0-.1c0,0,0,0,.1,0s0,0,.1,0c0,0,0,0,0,.1s0,0,0,.1,0,0-.1,0Z"/>
        <path class="st1" d="M42.8,23.9c.1,0,.2,0,.3,0s.1.1.2.2c0,0,0,.2,0,.3l-.2.8h-.2l.2-.8c0-.1,0-.2,0-.3s-.1-.1-.3-.1-.2,0-.3.1-.1.2-.2.3v.7h-.4l.3-1.4h.2v.4c0,0-.1-.1-.1-.1,0-.1.1-.2.3-.2s.2,0,.3,0Z"/>
        <path class="st1" d="M44.7,25.3c-.1,0-.2,0-.3,0s-.2-.1-.2-.2c0,0,0-.2,0-.3s0-.2,0-.3c0,0,0-.2.2-.3,0,0,.2-.1.2-.2s.2,0,.3,0,.2,0,.3,0c0,0,.1.1.2.2,0,0,0,.2,0,.3s0,.2,0,.4,0,.2-.1.3-.1.1-.2.2c0,0-.2,0-.3,0ZM44.8,25.1c.1,0,.2,0,.3,0,0,0,.1-.1.2-.2,0,0,0-.2,0-.3s0-.2-.1-.3c0,0-.2-.1-.3-.1s-.2,0-.3,0c0,0-.1.1-.2.2,0,0,0,.2,0,.3s0,.2.1.3c0,0,.2.1.3.1ZM45.2,25.3v-.4c0,0,.2-.3.2-.3v-.3s.2-.9.2-.9h.2l-.4,1.9h-.2Z"/>
        <path class="st1" d="M48.1,25.3l-.2-1.8h.3l.2,1.7h-.1l.9-1.7h.2l.2,1.7h-.1l.9-1.7h.3l-1,1.8h-.3l-.2-1.6h0s-.9,1.6-.9,1.6h-.3Z"/>
        <path class="st1" d="M52,23.9c.1,0,.2,0,.3,0s.1.1.2.2c0,0,0,.2,0,.3l-.2.8h-.2l.2-.8c0-.1,0-.2,0-.3s-.1-.1-.3-.1-.2,0-.3.1-.1.2-.2.3v.7h-.4l.4-1.9h.2l-.2.9h0c0-.2.1-.3.3-.3s.2,0,.3,0Z"/>
        <path class="st1" d="M54,25.3c-.1,0-.2,0-.3,0s-.2-.1-.2-.2c0,0,0-.2,0-.3s0-.2,0-.3c0,0,0-.2.2-.3,0,0,.2-.1.2-.2s.2,0,.3,0,.2,0,.3,0c0,0,.1.1.2.2,0,0,0,.2,0,.3,0,.2,0,.3,0,.5s-.1.2-.3.3c-.1,0-.2.1-.4.1ZM54,25.1c.1,0,.2,0,.3,0,0,0,.1-.1.2-.2,0,0,0-.2,0-.3s0-.2-.1-.3c0,0-.2-.1-.3-.1s-.2,0-.3,0c0,0-.1.1-.2.2,0,0,0,.2,0,.3s0,.2.1.3c0,0,.2.1.3.1ZM54.4,25.3v-.4c0,0,.2-.3.2-.3v-.3s.1-.4.1-.4h.2l-.3,1.4h-.2Z"/>
        <path class="st1" d="M55.7,24.1v-.2h.9v.2h-.9ZM56.1,25.3c0,0-.2,0-.2,0s-.1,0-.1-.2c0,0,0-.1,0-.2l.2-1.2h.2l-.2,1.2c0,0,0,.1,0,.2,0,0,0,0,.2,0s0,0,.1,0,0,0,0,0v.2s0,0-.1,0c0,0-.1,0-.2,0Z"/>
        <path class="st1" d="M58.9,25.3v-.7c.1,0,.2.2.2.2l-.5-1.3h.3l.4,1.1h-.1s.9-1.1.9-1.1h.3l-1,1.3v-.2c0,0,0,.7,0,.7h-.3Z"/>
        <path class="st1" d="M61.2,25.3c-.1,0-.2,0-.3,0,0,0-.2-.1-.2-.2,0,0,0-.2,0-.3s0-.3.1-.4.2-.2.3-.3c.1,0,.3-.1.4-.1s.2,0,.3,0c0,0,.2.1.2.2,0,0,0,.2,0,.3s0,.3-.1.4-.2.2-.3.3c-.1,0-.3.1-.4.1ZM61.2,25.1c.1,0,.2,0,.3,0,0,0,.1-.1.2-.2,0,0,0-.2,0-.3s0-.2-.1-.3c0,0-.2-.1-.3-.1s-.2,0-.3,0c0,0-.1.1-.2.2,0,0,0,.2,0,.3s0,.2.1.3c0,0,.2.1.3.1Z"/>
        <path class="st1" d="M63.3,25.3c-.1,0-.2,0-.3,0,0,0-.1-.1-.2-.2,0,0,0-.2,0-.3l.2-.8h.2l-.2.8c0,.1,0,.2,0,.3s.1.1.3.1.2,0,.3-.1c0,0,.1-.2.2-.3v-.7h.4l-.3,1.4h-.2v-.4c0,0,.1.1.1.1,0,.1-.1.2-.2.2-.1,0-.2,0-.3,0Z"/>
        <path class="st1" d="M66.2,25.3l.4-1.8h.2l.9,1.5h0s.3-1.5.3-1.5h.3l-.4,1.8h-.2l-.9-1.5h0s-.3,1.5-.3,1.5h-.3Z"/>
        <path class="st1" d="M69.5,25.3c-.1,0-.3,0-.4,0,0,0-.2-.1-.2-.2,0,0,0-.2,0-.3s0-.3.1-.4c0-.1.2-.2.3-.3.1,0,.2-.1.4-.1s.2,0,.3,0,.2.1.2.2c0,0,0,.2,0,.3s0,0,0,0c0,0,0,0,0,0h-1.2v-.2h1.1-.1s0-.1,0-.2c0,0,0-.1-.1-.2,0,0-.1,0-.2,0s-.2,0-.3,0c0,0-.1.1-.2.2,0,0,0,.2,0,.3s0,.2.1.3c0,0,.2.1.3.1s.2,0,.2,0c0,0,.1,0,.2-.1v.2c0,0,0,.1-.1.1,0,0-.2,0-.3,0Z"/>
        <path class="st1" d="M71.6,25.3c-.1,0-.3,0-.4,0,0,0-.2-.1-.2-.2,0,0,0-.2,0-.3s0-.3.1-.4c0-.1.2-.2.3-.3.1,0,.2-.1.4-.1s.2,0,.3,0,.2.1.2.2c0,0,0,.2,0,.3s0,0,0,0c0,0,0,0,0,0h-1.2v-.2h1.1-.1s0-.1,0-.2c0,0,0-.1-.1-.2,0,0-.1,0-.2,0s-.2,0-.3,0c0,0-.1.1-.2.2,0,0,0,.2,0,.3s0,.2.1.3c0,0,.2.1.3.1s.2,0,.2,0c0,0,.1,0,.2-.1v.2c0,0,0,.1-.1.1,0,0-.2,0-.3,0Z"/>
        <path class="st1" d="M73.6,25.3c-.1,0-.2,0-.3,0s-.2-.1-.2-.2c0,0,0-.2,0-.3s0-.2,0-.3c0,0,0-.2.2-.3,0,0,.2-.1.2-.2,0,0,.2,0,.3,0s.2,0,.3,0c0,0,.1.1.2.2,0,0,0,.2,0,.3s0,.2,0,.4c0,.1,0,.2-.1.3,0,0-.1.1-.2.2,0,0-.2,0-.3,0ZM73.7,25.1c.1,0,.2,0,.3,0,0,0,.1-.1.2-.2,0,0,0-.2,0-.3s0-.2-.1-.3c0,0-.2-.1-.3-.1s-.2,0-.3,0c0,0-.1.1-.2.2,0,0,0,.2,0,.3s0,.2.1.3.2.1.3.1ZM74.1,25.3v-.4c0,0,.2-.3.2-.3v-.3s.2-.9.2-.9h.2l-.4,1.9h-.2Z"/>
      </g>
    </g>
  </g>
  <path class="st1" d="M17.3,22.7c.7-3.5,3-9.4,24.5-10.9,0,0,11.2-6,16.7-7.1,17.2-3.6,24.3,4.5,32.1,4.1-3.6,2.4-28.9,2.4-34.6,4.6,3.3-1.7,19.6-4.5,24.2-4.3-5.2-2.8-9.1-5-21.5-3.3-3.4.5-10.5,3.6-12.6,5.8,0,.9.9,1.6,3.7,1.8,0,0-2.7.5-5.5,0s-14.5,1.2-18.4,3c4.1-.2,9.4,3,8.3,7.9,0-.6-1.2-6.2-8-6.9-5.9-.6-9,5.3-9,5.3h0ZM51.1,10.4h-1.1c1.4.2,2,.8,2,.8,0,0-.6,1-2.1,1.2h.9c2,0,2.8-1.3,2.8-1.3,0,0-.8-.8-2.5-.9h0v.2Z"/>
  <path class="st1" d="M39.5,4.8c-.6.4-1.2.9-1.8,1.3l-1.5-.6c.7-.6,1.5-1,2.3-1.5l1,.7h0ZM35.5,6.1c-.7.6-1.3,1.3-1.9,2l2.2.2c.4-.6.9-1.1,1.4-1.6l-1.7-.5h0ZM41.8,2.8c-.9.3-1.8.6-2.6,1l.9.7c.7-.4,1.4-.7,2.2-1l-.4-.8h-.1ZM47.8,1.9h-1.1v.6h3.6l.3-.4c-.9-.1-1.9-.2-2.9-.2h.1ZM33,8.8c-.5.8-1,1.6-1.4,2.4.8-.2,1.8-.4,2.7-.6.3-.6.6-1.2,1-1.8h-2.3ZM45.8,2c-1.1,0-2.2.3-3.2.5l.3.7c.9-.3,1.9-.5,2.9-.6v-.7h0ZM51.4,2.7c1.7.2,3.2.6,4.7,1.1h.2c-1.4-.6-2.9-1.1-4.5-1.4l-.3.4h-.1Z"/>
  <path class="st1" d="M41.4,2.1c-1,.3-1.9.7-2.8,1.1l-2.1-1.8c1.3-.4,2.6-.8,4-1l1,1.7h-.1ZM35.2,5.2c.8-.6,1.6-1.2,2.5-1.7l-2.5-1.8c-1.4.5-2.7,1.2-3.9,2l3.8,1.4h0ZM32.5,8c.6-.8,1.3-1.5,2.1-2.2l-4.2-1.3c-1.2.9-2.3,1.9-3.2,3l5.4.5h0ZM52.7,1.3l-.4.4c1.7.4,3.3.9,4.7,1.7h.3c-1.4-.8-3-1.5-4.6-2.1ZM47,0l-.2,1.1h.8c1.2,0,2.4,0,3.6.3l.4-.5c-1.5-.4-3-.7-4.6-.8h0ZM42.3,1.8c1.2-.3,2.3-.5,3.6-.6V0h-1.2C43.6,0,42.6,0,41.6.2c0,0,.7,1.6.7,1.6ZM26.1,8.6c-1,1.4-1.9,3-2.4,4.7,1.8-.7,4-1.3,6.7-1.9.4-.9.8-1.8,1.4-2.7,0,0-5.7-.1-5.7-.1Z"/>
  <polygon class="st0" points="46.2 8 44.5 8.8 29.6 6.4 46.2 8"/>
</svg>